<svg xmlns="http://www.w3.org/2000/svg" viewBox="0 0 642 390">
    <defs>
        <style>.cls-1{fill:#fff;}.cls-2{fill:none;}</style>
    </defs>
    <title>Asset 3</title>
    <g id="Layer_2">
        <g id="Layer_1-2">
            <path class="cls-1"
                  d="M305.6,201.75c-2.59,1.29-8.4,2.68-16,2.68-21.52,0-32.6-13.39-32.6-31.12,0-21.24,15.14-33.06,34-33.06,7.3,0,12.84,1.48,15.33,2.77l-2.86,11.17a30.39,30.39,0,0,0-11.82-2.31c-11.17,0-19.85,6.74-19.85,20.59,0,12.47,7.39,20.32,19.95,20.32a35.19,35.19,0,0,0,11.73-2Z"/>
            <path class="cls-1" d="M351.86,177.19H329V192h25.58v11.54H314.83V141.27h38.42v11.54H329v12.93h22.9Z"/>
            <path class="cls-1" d="M364.14,141.27h14.13v50.42H403v11.82H364.14Z"/>
            <path class="cls-1" d="M411.32,141.27h14.13v50.42H450.2v11.82H411.32Z"/>
            <path class="cls-1"
                  d="M473.56,187.53l-4.43,16H454.54l19-62.24H492l19.3,62.24H496.18l-4.8-16ZM489.35,177l-3.88-13.21c-1.11-3.69-2.22-8.31-3.14-12h-.18c-.92,3.69-1.85,8.4-2.86,12L475.59,177Z"/>
            <path class="cls-1"
                  d="M285.85,258.42a41.55,41.55,0,0,0-36-39.84h0l-5.79-.24-1-.07a61.35,61.35,0,0,1-24.42-7.74c-6.9-4-23.6-13.54-26.07-32.08,0,0-2.76-20.75,15.83-36.87a52.5,52.5,0,0,1,7.81-5.29l.07,0a23.33,23.33,0,0,1,6.81-2,22.34,22.34,0,0,0,13.37-7.34c.33-.37.62-.77.92-1.16.1-.18.21-.39.31-.55l.09-.15c.22-.31.46-.62.66-1s.3-.46.54-.87c.14-.24.26-.46.35-.63s.33-.6.47-.91A22.65,22.65,0,0,0,242,110.85c0-.54-.09-1.08-.14-1.62,0-.25,0-.49-.09-.74,0-.09,0-.18-.05-.27A22.53,22.53,0,0,0,229.91,92a22.09,22.09,0,0,0-22.69,1.15,22.56,22.56,0,0,0-10.09,20.17c-.07.36-.14.72-.23,1.11a37.1,37.1,0,0,1-5.39,12.28,43.84,43.84,0,0,1-6.82,7.94,48.4,48.4,0,0,1-17.75,10.49c-1.48.49-2.88.86-4.18,1.15l-.19,0-.32,0a30.65,30.65,0,0,0-4.14.21h-.33l0,0A30.88,30.88,0,0,0,131,172.89c-.14,1-.23,2-.28,3,0,.17,0,.35,0,.52s0,.62,0,.92,0,.7,0,1.05c0,.14,0,.28,0,.42q0,.72.11,1.43v.05A30.88,30.88,0,0,0,161.62,208h0a23.94,23.94,0,0,1,9.18,1.67,52.87,52.87,0,0,1,20,14.33,53.94,53.94,0,0,1,12.78,33.33h0c0,.48,0,.91,0,1.25a40.82,40.82,0,0,0,.28,5.52c0,.27,0,.44,0,.44h0l.06-.06a41.26,41.26,0,0,0,18.77,29.67l.41.26c.79.49,1.61.95,2.43,1.39l.73.37c.81.41,1.63.79,2.47,1.15l.87.35a17.68,17.68,0,0,0,1.74.64c.35.11.68.24,1,.34.85.27,1.71.5,2.59.71l1,.23q1.27.27,2.57.47a41.48,41.48,0,0,0,5.65.45h1c17.18-.34,33.53-11.84,38.86-29.07.08-.25.14-.5.21-.75s.22-.76.32-1.15.22-.92.32-1.38c0-.2.09-.4.13-.6.1-.51.19-1,.27-1.53,0-.17.06-.34.09-.51.08-.53.14-1.07.2-1.61,0-.15,0-.31.05-.46.05-.51.09-1,.12-1.55,0-.19,0-.39,0-.58,0-.43,0-.86,0-1.29s0-.63,0-.94S285.86,258.66,285.85,258.42Zm-93.77-86.08,0,.16Z"/>
            <path class="cls-1"
                  d="M130.67,177c0,.07,0,.14,0,.21,0-.31,0-.61,0-.92C130.68,176.57,130.67,176.81,130.67,177Z"/>
            <rect class="cls-2" width="642" height="390"/>
        </g>
    </g>
</svg>