<svg xmlns:xlink="http://www.w3.org/1999/xlink" xmlns="http://www.w3.org/2000/svg" viewBox="0 0 247.48 247.48">
    <defs>
        <style>
            .cls-1{fill:url(#linear-gradient);}.cls-2{fill:url(#linear-gradient-2);}.cls-3{fill:url(#linear-gradient-3);}.cls-4{fill:url(#linear-gradient-4);}.cls-5{fill:url(#linear-gradient-5);}.cls-6{fill:none;}
        </style>
        <linearGradient id="linear-gradient" x1="52.52" y1="60.42" x2="239.88" y2="-126.94"
                        gradientTransform="translate(-68.42 150.82) rotate(-3.67)" gradientUnits="userSpaceOnUse">
            <stop offset="0" stop-color="#2e3192"/>
            <stop offset="1" stop-color="#8fcae5"/>
        </linearGradient>
        <linearGradient id="linear-gradient-2" x1="276.2" y1="304.22" x2="101.1" y2="129.13"
                        gradientUnits="userSpaceOnUse">
            <stop offset="0" stop-color="#2e3192"/>
            <stop offset="0.15" stop-color="#39429b"/>
            <stop offset="0.46" stop-color="#556fb4"/>
            <stop offset="0.89" stop-color="#82b6da"/>
            <stop offset="1" stop-color="#8fcae5"/>
        </linearGradient>
        <linearGradient id="linear-gradient-3" x1="271.35" y1="299.11" x2="44.31" y2="72.07"
                        gradientTransform="matrix(1, 0, 0, 1, 0, 0)" xlink:href="#linear-gradient"/>
        <linearGradient id="linear-gradient-4" x1="224.89" y1="253.69" x2="29.55" y2="58.34"
                        gradientTransform="matrix(1, 0, 0, 1, 0, 0)" xlink:href="#linear-gradient"/>
        <linearGradient id="linear-gradient-5" x1="1560.69" y1="-263.92" x2="1706.21" y2="-409.44"
                        gradientTransform="translate(-687.78 1539.72) rotate(-48.67)" xlink:href="#linear-gradient"/>
    </defs>
    <title>Asset 7</title>
    <g id="Layer_2">
        <g id="Layer_1-2">
            <path class="cls-1"
                  d="M113,42.12a22,22,0,1,1,40,11.32,22.13,22.13,0,1,0-38.83-20.27l-.06.17a23,23,0,0,0-.75,2.76h0c-.05.27-.09.54-.14.8l-.1-.08s0,.26,0,.7-.11.86-.14,1.3c0,.2,0,.39,0,.59s0,.27,0,.41v.09a31.93,31.93,0,0,1-.58,3.23,37.11,37.11,0,0,1-5.39,12.28,43.83,43.83,0,0,1-6.82,7.94A48.4,48.4,0,0,1,82.37,73.85a45,45,0,0,1-6.3,1.59,30.87,30.87,0,0,1,31.82,28.71c0-.09,0-.18,0-.27a45.1,45.1,0,0,1,.8-6.89A48.39,48.39,0,0,1,116.81,78a43.85,43.85,0,0,1,7-7.78,37.12,37.12,0,0,1,11.49-6.91c.93-.34,1.76-.6,2.53-.82-.48.06-1,.13-1.44.17A22,22,0,0,1,113,42.12Z"/>
            <path class="cls-2"
                  d="M200,198.27c.12-.46.22-.92.32-1.38,0-.2.09-.4.13-.6.1-.51.19-1,.27-1.53,0-.17.06-.34.09-.51.08-.53.14-1.07.2-1.61,0-.15,0-.31.05-.46.05-.51.09-1,.12-1.55,0-.19,0-.39,0-.58,0-.43,0-.86,0-1.29s0-.63,0-.94,0-.47,0-.71a41.55,41.55,0,0,0-36-39.84h0l-5.79-.24-1-.07A41.16,41.16,0,0,0,119,186.06c0,.47,0,.91,0,1.25a40.82,40.82,0,0,0,.28,5.52c0,.27,0,.44,0,.44h0l.06-.06a41.26,41.26,0,0,0,18.77,29.67l.41.26c.79.49,1.61.95,2.43,1.39l.73.37c.81.41,1.63.79,2.47,1.15l.7.28q1.07.43,2.17.8l.77.26c.85.27,1.71.5,2.59.71l1,.23q1.27.27,2.57.47a41.48,41.48,0,0,0,5.65.45h1c17.18-.34,33.53-11.84,38.86-29.07.08-.25.14-.5.21-.75S199.94,198.66,200,198.27Z"/>
            <path class="cls-3"
                  d="M76.67,136c-14.63,0-24.16-28.1-25-27.59-.7.41,4.92,19,21.16,25.83a32.17,32.17,0,0,0,7.86,2.19,53.33,53.33,0,0,1,25.6,16.28A53.94,53.94,0,0,1,119,186.06,41.16,41.16,0,0,1,158.47,147a70.78,70.78,0,0,1-24.42-7.74,69.43,69.43,0,0,1-9.74-6.31,44.55,44.55,0,0,1-10.24-10.56,38.44,38.44,0,0,1-4.59-8.81,34.61,34.61,0,0,1-1.64-6.91c0-.07,0-.16,0-.19C107.09,105.87,91.85,136,76.67,136Z"/>
            <path class="cls-4"
                  d="M78,75l-.32,0a30.65,30.65,0,0,0-4.14.21h-.33l0,0a30.88,30.88,0,0,0-26.78,26.31c-.14,1-.23,2-.28,3,0,.17,0,.35,0,.52s0,.62,0,.92,0,.7,0,1.05c0,.14,0,.28,0,.42q0,.72.11,1.43V109a30.88,30.88,0,0,0,61.58-2.47q0-.43,0-.87A30.87,30.87,0,0,0,78,75Z"/>
            <path class="cls-5"
                  d="M157.13,36.91a22.47,22.47,0,1,0-5.27,18.64c.33-.37.62-.77.92-1.16.1-.18.21-.39.31-.55l.09-.15c.22-.31.46-.62.66-1s.3-.46.54-.87c.14-.24.26-.46.35-.63s.33-.6.47-.91A22.67,22.67,0,0,0,157.38,39c0-.24-.05-.47-.08-.71s-.07-.73-.12-1.1C157.17,37.1,157.15,37,157.13,36.91Z"/>
            <rect class="cls-6" width="247.48" height="247.48"/>
        </g>
    </g>
</svg>